<?xml version="1.0" encoding="utf-8"?>
<!-- Generator: Adobe Illustrator 22.0.0, SVG Export Plug-In . SVG Version: 6.00 Build 0)  -->
<svg version="1.1" id="Layer_1" xmlns="http://www.w3.org/2000/svg" xmlns:xlink="http://www.w3.org/1999/xlink" x="0px" y="0px"
	 viewBox="0 0 686.5 206.1" style="enable-background:new 0 0 686.5 206.1;" xml:space="preserve">
<style type="text/css">
	.st0{fill:#343741;}
	.st1{fill-rule:evenodd;clip-rule:evenodd;fill:#006FBA;}
	.st2{fill-rule:evenodd;clip-rule:evenodd;fill:#FFCE34;}
	.st3{fill-rule:evenodd;clip-rule:evenodd;fill:#00AAE7;}
	.st4{fill-rule:evenodd;clip-rule:evenodd;fill:#ED1944;}
</style>
<g id="XMLID_8_">
	<g id="XMLID_390_">
		<g id="XMLID_722_">
			<g id="XMLID_723_">
				<g id="XMLID_724_">
					<path class="st0" d="M15.7,163c-4.5,0-8.4-1.6-11.5-4.7c-1.9-1.8-3-4-3.5-6.4C0.2,149.5,0,146,0,141.4c0-4.7,0.2-8.2,0.7-10.6
						c0.5-2.4,1.6-4.5,3.5-6.4c3.1-3.1,6.9-4.7,11.5-4.7c8.2,0,14.2,4.8,15.7,13.4h-8.4c-0.9-3.6-3.2-6-7.2-6
						c-2.3,0-4.1,0.7-5.3,2.2c-1.7,1.8-2.1,3.8-2.1,12s0.4,10.1,2.1,12c1.3,1.5,3,2.2,5.3,2.2c4,0,6.3-2.4,7.2-6h8.4
						C29.9,158.2,23.8,163,15.7,163z"/>
				</g>
			</g>
		</g>
		<g id="XMLID_718_">
			<g id="XMLID_719_">
				<g id="XMLID_720_">
					<path class="st0" d="M67.6,163V145H53.1V163h-8.4v-42.8h8.4v17.5h14.5v-17.5h8.4V163H67.6z"/>
				</g>
			</g>
		</g>
		<g id="XMLID_714_">
			<g id="XMLID_715_">
				<g id="XMLID_716_">
					<path class="st0" d="M92,163v-42.8h8.4V163H92z"/>
				</g>
			</g>
		</g>
		<g id="XMLID_710_">
			<g id="XMLID_711_">
				<g id="XMLID_712_">
					<path class="st0" d="M128.2,163c-6.5,0-11.4-1.4-15.5-5.6l5.4-5.4c2.7,2.7,6.3,3.6,10.3,3.6c4.9,0,7.5-1.8,7.5-5.3
						c0-1.5-0.4-2.7-1.3-3.6c-0.8-0.8-1.8-1.2-3.8-1.5l-5.1-0.7c-3.6-0.5-6.3-1.7-8.2-3.5c-2-2-3-4.8-3-8.4
						c0-7.6,5.6-12.9,14.8-12.9c5.9,0,10.1,1.4,13.7,5l-5.3,5.2c-2.7-2.6-5.9-2.9-8.7-2.9c-4.4,0-6.6,2.4-6.6,5.4
						c0,1.1,0.4,2.2,1.3,3c0.8,0.8,2.2,1.4,3.9,1.7l5,0.7c3.9,0.5,6.3,1.6,8.1,3.3c2.3,2.1,3.3,5.3,3.3,9
						C143.9,158.3,137.1,163,128.2,163z"/>
				</g>
			</g>
		</g>
		<g id="XMLID_706_">
			<g id="XMLID_707_">
				<g id="XMLID_708_">
					<path class="st0" d="M158,163v-42.8h28.3v7.5h-19.9v10h16.9v7.5h-16.9v10.4h19.9v7.5H158z"/>
				</g>
			</g>
		</g>
		<g id="XMLID_702_">
			<g id="XMLID_703_">
				<g id="XMLID_704_">
					<path class="st0" d="M200.4,163v-42.8h8.4v35.4h19.5v7.5H200.4z"/>
				</g>
			</g>
		</g>
		<g id="XMLID_698_">
			<g id="XMLID_699_">
				<g id="XMLID_700_">
					<path class="st0" d="M266,163l-11-19.5l-5.5,6.6V163h-8.4v-42.8h8.4v18.7l15.1-18.7h10.2l-14.2,17l15.2,25.8H266z"/>
				</g>
			</g>
		</g>
		<g id="XMLID_693_">
			<g id="XMLID_694_">
				<g id="XMLID_695_">
					<path class="st0" d="M309.9,163l-8.4-17.1h-6V163h-8.4v-42.8H304c8.7,0,13.9,6,13.9,13.1c0,6-3.7,9.7-7.8,11.3l9.6,18.5H309.9z
						 M303.4,127.6h-7.9v11.3h7.9c3.7,0,6.1-2.3,6.1-5.7C309.5,129.9,307.1,127.6,303.4,127.6z"/>
				</g>
			</g>
		</g>
		<g id="XMLID_688_">
			<g id="XMLID_689_">
				<g id="XMLID_690_">
					<path class="st0" d="M357,163l-2.5-7.6h-15.2l-2.6,7.6h-8.7l15.6-42.8h6.6l15.7,42.8H357z M347,132.8l-5.4,15.6h10.7L347,132.8
						z"/>
				</g>
			</g>
		</g>
		<g id="XMLID_680_">
			<g id="XMLID_681_">
				<g id="XMLID_682_">
					<path class="st0" d="M385.4,127.6v10.5h16.9v7.5h-16.9V163H377v-42.8h28.3v7.5H385.4z"/>
				</g>
			</g>
		</g>
		<g id="XMLID_670_">
			<g id="XMLID_677_">
				<g id="XMLID_678_">
					<path class="st0" d="M435,127.6V163h-8.4v-35.4h-11.2v-7.5h30.8v7.5H435z"/>
				</g>
			</g>
		</g>
		<g id="XMLID_410_">
			<g id="XMLID_411_">
				<g id="XMLID_412_">
					<path class="st0" d="M504.1,120.1h26v2.9h-22.8v16.9h19.4v2.9h-19.4v17.3h22.8v2.9h-26V120.1z"/>
				</g>
			</g>
		</g>
		<g id="XMLID_406_">
			<g id="XMLID_407_">
				<g id="XMLID_408_">
					<path class="st0" d="M557.1,163c-6.3,0-10.3-1.7-14.2-5.6l2.3-2.3c3.8,3.8,7,5,12.1,5c6.8,0,10.9-3.2,10.9-8.8
						c0-2.6-0.7-4.6-2.3-6c-1.6-1.3-2.6-1.8-6.2-2.3l-5-0.8c-3.2-0.5-5.7-1.5-7.6-3.1c-2.2-1.8-3.3-4.5-3.3-7.8
						c0-7.2,5-11.6,13.2-11.6c5.3,0,8.6,1.4,12.2,4.6l-2.1,2.1c-2.5-2.4-5.3-3.9-10.3-3.9c-6.2,0-9.9,3.3-9.9,8.8
						c0,2.4,0.7,4.3,2.2,5.5c1.5,1.3,3.9,2.2,6.3,2.6l4.6,0.7c4,0.5,5.9,1.3,7.6,2.8c2.3,1.9,3.7,4.8,3.7,8.2
						C571.4,158.4,566,163,557.1,163z"/>
				</g>
			</g>
		</g>
		<g id="XMLID_402_">
			<g id="XMLID_403_">
				<g id="XMLID_404_">
					<path class="st0" d="M587.5,120.1h3.3V163h-3.3V120.1z"/>
				</g>
			</g>
		</g>
		<g id="XMLID_398_">
			<g id="XMLID_399_">
				<g id="XMLID_400_">
					<path class="st0" d="M633.9,158.1c-2.8,3.1-6.9,4.9-11.2,4.9c-4.1,0-7.8-1.6-10.6-4.4c-3.9-3.9-3.9-7.7-3.9-17.2
						c0-9.6,0.1-13.4,3.9-17.2c2.8-2.8,6.6-4.4,10.6-4.4c7.4,0,13.3,5,14.5,12.4H634c-1.3-5.9-5.6-9.5-11.3-9.5
						c-3,0-5.9,1.1-8.1,3.3c-3,3-3.3,6.4-3.3,15.5c0,9.1,0.2,12.4,3.3,15.5c2.2,2.1,5,3.3,8.1,3.3c3.3,0,6.6-1.4,8.8-4.1
						c1.9-2.3,2.6-4.8,2.6-8.4v-3.8h-11.4v-2.9h14.6v6.9C637.4,152.3,636.5,155.4,633.9,158.1z"/>
				</g>
			</g>
		</g>
		<g id="XMLID_394_">
			<g id="XMLID_395_">
				<g id="XMLID_396_">
					<path class="st0" d="M658.5,125.7V163h-3.3v-42.8h3.3l24.8,37.1v-37.1h3.3V163h-3.3L658.5,125.7z"/>
				</g>
			</g>
		</g>
		<g id="XMLID_391_">
			<g id="XMLID_392_">
				<g id="XMLID_393_">
					<path class="st0" d="M482.3,124c-2.6-2.6-6.2-3.9-10.7-3.9h-14.4v2.9h3.3h6.7h3.6c3.4,0,6.8,0.7,9.2,3.3
						c3.4,3.5,3.2,9.8,3.2,14.6c0,4.8,0.2,12.3-3.2,15.8c-2.5,2.6-5.8,3.3-9.2,3.3h-3.6h-6.7h-3.3v2.9h14.4c4.5,0,8.1-1.3,10.7-3.9
						c4.3-4.3,4.2-12.3,4.2-18.1C486.5,135.2,486.7,128.4,482.3,124z"/>
				</g>
			</g>
		</g>
	</g>
	<g id="XMLID_197_">
		<g id="XMLID_386_">
			<g id="XMLID_387_">
				<g id="XMLID_388_">
					<path class="st0" d="M96.1,205.8v-31h3.3v28h15.9v3H96.1z"/>
				</g>
			</g>
		</g>
		<g id="XMLID_381_">
			<g id="XMLID_382_">
				<g id="XMLID_383_">
					<path class="st0" d="M165.3,205.8l-2.5-7h-13.6l-2.5,7h-3.5l11.4-31h2.8l11.4,31H165.3z M156.1,179.6l-5.8,16.4h11.6
						L156.1,179.6z"/>
				</g>
			</g>
		</g>
		<g id="XMLID_375_">
			<g id="XMLID_376_">
				<g id="XMLID_377_">
					<path class="st0" d="M212,205.8h-12.1v-31h11.7c5.4,0,9.2,3.1,9.2,8.3c0,3.3-2,5.8-4.6,6.8c3,1.1,5.1,3.7,5.1,7.4
						C221.3,202.9,217.5,205.8,212,205.8z M211.4,177.8h-8.1v10.7h8.1c3.4,0,6.1-1.7,6.1-5.4C217.5,179.5,214.8,177.8,211.4,177.8z
						 M211.7,191.5h-8.5v11.4h8.5c3.8,0,6.2-2.2,6.2-5.7C217.9,193.7,215.5,191.5,211.7,191.5z"/>
				</g>
			</g>
		</g>
		<g id="XMLID_370_">
			<g id="XMLID_371_">
				<g id="XMLID_372_">
					<path class="st0" d="M272.8,202.9c-2.1,2.1-4.8,3.2-7.9,3.2c-3.1,0-5.8-1.1-7.9-3.2c-2.9-2.9-2.9-6-2.9-12.5
						c0-6.6,0-9.6,2.9-12.5c2.1-2.1,4.8-3.2,7.9-3.2c3.1,0,5.8,1.1,7.9,3.2c2.9,2.9,2.9,6,2.9,12.5
						C275.7,196.9,275.7,200,272.8,202.9z M270.2,179.8c-1.4-1.4-3.3-2.2-5.4-2.2c-2,0-4,0.8-5.4,2.2c-2,2-2.2,4.1-2.2,10.6
						s0.2,8.6,2.2,10.6c1.4,1.4,3.3,2.2,5.4,2.2c2,0,4-0.8,5.4-2.2c2-2,2.2-4.1,2.2-10.6S272.2,181.8,270.2,179.8z"/>
				</g>
			</g>
		</g>
		<g id="XMLID_365_">
			<g id="XMLID_366_">
				<g id="XMLID_367_">
					<path class="st0" d="M327.5,205.8l-7.1-13.8H313v13.8h-3.3v-31h11.9c5.4,0,9.2,3.3,9.2,8.6c0,4.5-2.7,7.5-6.8,8.3l7.4,14.1
						H327.5z M321.2,177.8H313v11.4h8.3c3.6,0,6.2-1.9,6.2-5.7C327.4,179.7,324.9,177.8,321.2,177.8z"/>
				</g>
			</g>
		</g>
		<g id="XMLID_360_">
			<g id="XMLID_361_">
				<g id="XMLID_362_">
					<path class="st0" d="M382.5,205.8l-2.5-7h-13.6l-2.5,7h-3.5l11.4-31h2.8l11.4,31H382.5z M373.3,179.6l-5.8,16.4H379
						L373.3,179.6z"/>
				</g>
			</g>
		</g>
		<g id="XMLID_356_">
			<g id="XMLID_357_">
				<g id="XMLID_358_">
					<path class="st0" d="M423.6,177.8v28h-3.3v-28h-9v-3h21.3v3H423.6z"/>
				</g>
			</g>
		</g>
		<g id="XMLID_305_">
			<g id="XMLID_306_">
				<g id="XMLID_307_">
					<path class="st0" d="M481.3,202.9c-2.1,2.1-4.8,3.2-7.9,3.2c-3.1,0-5.8-1.1-7.9-3.2c-2.9-2.9-2.9-6-2.9-12.5
						c0-6.6,0-9.6,2.9-12.5c2.1-2.1,4.8-3.2,7.9-3.2c3.1,0,5.8,1.1,7.9,3.2c2.9,2.9,2.9,6,2.9,12.5
						C484.2,196.9,484.2,200,481.3,202.9z M478.7,179.8c-1.4-1.4-3.3-2.2-5.4-2.2c-2,0-4,0.8-5.4,2.2c-2,2-2.2,4.1-2.2,10.6
						s0.2,8.6,2.2,10.6c1.4,1.4,3.3,2.2,5.4,2.2c2,0,4-0.8,5.4-2.2c2-2,2.2-4.1,2.2-10.6S480.7,181.8,478.7,179.8z"/>
				</g>
			</g>
		</g>
		<g id="XMLID_202_">
			<g id="XMLID_203_">
				<g id="XMLID_204_">
					<path class="st0" d="M536,205.8l-7.1-13.8h-7.5v13.8h-3.3v-31H530c5.4,0,9.2,3.3,9.2,8.6c0,4.5-2.7,7.5-6.8,8.3l7.4,14.1H536z
						 M529.7,177.8h-8.3v11.4h8.3c3.6,0,6.2-1.9,6.2-5.7C535.9,179.7,533.4,177.8,529.7,177.8z"/>
				</g>
			</g>
		</g>
		<g id="XMLID_198_">
			<g id="XMLID_199_">
				<g id="XMLID_200_">
					<path class="st0" d="M581.3,193v12.8H578V193l-9.2-18.2h3.6l7.3,14.8l7.2-14.8h3.6L581.3,193z"/>
				</g>
			</g>
		</g>
	</g>
	<g id="XMLID_825_">
		<g id="XMLID_848_">
			<g id="XMLID_849_">
				<path id="XMLID_850_" class="st1" d="M407.4,79c-2.7-2.6-11.2-10.1-11.2-10.1l10,19c0,0-14.3-20.4-18-25.3
					c1.1,7.8,6.3,29.2,18.3,39c4.3,3.5,13.5,8.4,35.8,15.9C422,103.8,419.4,90.5,407.4,79z"/>
			</g>
		</g>
		<g id="XMLID_841_">
			<g id="XMLID_842_">
				<path id="XMLID_843_" class="st2" d="M471,10.4c-2.2,3.8-1.1,8.9-2.1,12.2c0.2-4.8-2.1-5.2,0.6-22.5
					c-1.3,4.2-14.3,32.5-13.7,55.9c0.3,12.9,5,27,4.2,39.8c-0.1,1.7,0,7.9-5.5,21.7c7.7-9.7,23.5-25.4,19.4-40.9
					c0.9,2.4,1.7,6,1.8,8.7c0.1-3.5-0.1-8.1-0.2-11.7c0.4,1.2,1,4,1,5.4c2.8-11.4,1.4-25.1,0.5-36.7c-0.1,4.4-1,8.6-2.7,12.5
					C476.8,43,475,32,476,19.7c-0.5,4.2-3,6.4-3.9,10.8c0-2.8-0.5-3.1,0.8-11.7C469.5,30.4,470,15.1,471,10.4z"/>
			</g>
		</g>
		<g id="XMLID_830_">
			<g id="XMLID_831_">
				<path id="XMLID_840_" class="st3" d="M435.1,16.8c-2.5,5.9-4.5,11.9-6.1,17.9c1.4-2.2,2.7-4.5,3.7-6.8
					c-5.9,16.5-3.4,26.6,1.1,40.3c-1.1-6,1.3-11.2,1-13.1c0,9,6.2,19.1,9.7,25.1c6.4,10.9,10.1,21,7.3,37.2
					c-14.3-9.3-25.9-25.1-29.3-34.7c1.7,2.9,8.5,11.3,18.5,19.9C429.6,90.9,392.8,42.5,435.1,16.8z"/>
			</g>
		</g>
		<g id="XMLID_826_">
			<g id="XMLID_827_">
				<path id="XMLID_828_" class="st4" d="M535.5,63.7c6.1-9.1,3.6-17.1,12.6-27.1c-9.7,5.3-9.9,14.2-20.9,19.4
					C515.7,62.3,513,70,508.9,77.5c-0.4,0.8-0.6-9,4-14.8c-9.6,9.3-8.8,20.2-14.3,25.2c-4.4,4-4.6-1.7-1.2-9.3
					c-5.6,5.6-13,26.6-36.6,38.4c23,2.2,36.8-4.6,48-13.7C524.9,90.4,529.8,71.9,535.5,63.7z"/>
			</g>
		</g>
	</g>
</g>
</svg>
